<svg width="35" height="35" viewBox="0 0 35 35" fill="none" xmlns="http://www.w3.org/2000/svg">
<rect width="35" height="35" rx="17.5" fill="#FF0000"/>
<path d="M22.1664 15.358L21.9144 22.6704C21.8929 23.2967 21.6177 23.8903 21.1471 24.3252C20.6766 24.7602 20.0477 25.0022 19.394 25H14.6054C13.9521 25.0022 13.3236 24.7605 12.8531 24.3261C12.3826 23.8917 12.1071 23.2987 12.085 22.6728L11.833 15.358C11.8275 15.1978 11.8886 15.042 12.0028 14.925C12.1171 14.808 12.2752 14.7393 12.4423 14.734C12.6094 14.7288 12.7718 14.7873 12.8939 14.8969C13.016 15.0064 13.0876 15.1579 13.0931 15.3181L13.3452 22.6324C13.3577 22.9446 13.496 23.24 13.731 23.4566C13.966 23.6732 14.2794 23.7941 14.6054 23.7938H19.394C19.7204 23.794 20.0342 23.6728 20.2692 23.4557C20.5043 23.2387 20.6423 22.9426 20.6542 22.6299L20.9062 15.3181C20.9117 15.1579 20.9834 15.0064 21.1055 14.8969C21.2275 14.7873 21.39 14.7288 21.5571 14.734C21.7242 14.7393 21.8823 14.808 21.9965 14.925C22.1108 15.042 22.1719 15.1978 22.1664 15.358ZM23 12.9245C23 13.0847 22.9336 13.2383 22.8155 13.3516C22.6973 13.4649 22.537 13.5285 22.3699 13.5285H11.6301C11.463 13.5285 11.3027 13.4649 11.1845 13.3516C11.0664 13.2383 11 13.0847 11 12.9245C11 12.7643 11.0664 12.6107 11.1845 12.4974C11.3027 12.3842 11.463 12.3205 11.6301 12.3205H13.5834C13.783 12.321 13.9757 12.2503 14.124 12.1222C14.2722 11.994 14.3654 11.8175 14.3855 11.6271C14.432 11.1805 14.6503 10.7664 14.9978 10.4656C15.3454 10.1648 15.7974 9.99884 16.2656 10H17.7337C18.202 9.99884 18.654 10.1648 19.0015 10.4656C19.3491 10.7664 19.5674 11.1805 19.6139 11.6271C19.6339 11.8175 19.7272 11.994 19.8754 12.1222C20.0237 12.2503 20.2164 12.321 20.416 12.3205H22.3693C22.5364 12.3205 22.6967 12.3842 22.8148 12.4974C22.933 12.6107 22.9994 12.7643 22.9994 12.9245H23ZM15.4793 12.3205H18.5213C18.4385 12.1392 18.3844 11.947 18.3607 11.7504C18.3451 11.6015 18.2724 11.4635 18.1566 11.363C18.0409 11.2626 17.8905 11.2069 17.7344 11.2068H16.2663C16.1102 11.2069 15.9597 11.2626 15.844 11.363C15.7283 11.4635 15.6556 11.6015 15.64 11.7504C15.616 11.947 15.5623 12.1392 15.4793 12.3205ZM16.1138 21.4715V16.3286C16.1138 16.1684 16.0474 16.0148 15.9292 15.9015C15.8111 15.7882 15.6508 15.7246 15.4837 15.7246C15.3166 15.7246 15.1563 15.7882 15.0382 15.9015C14.92 16.0148 14.8536 16.1684 14.8536 16.3286V21.4739C14.8536 21.6341 14.92 21.7877 15.0382 21.901C15.1563 22.0143 15.3166 22.0779 15.4837 22.0779C15.6508 22.0779 15.8111 22.0143 15.9292 21.901C16.0474 21.7877 16.1138 21.6341 16.1138 21.4739V21.4715ZM19.147 21.4715V16.3286C19.147 16.1684 19.0806 16.0148 18.9625 15.9015C18.8443 15.7882 18.684 15.7246 18.5169 15.7246C18.3498 15.7246 18.1896 15.7882 18.0714 15.9015C17.9532 16.0148 17.8868 16.1684 17.8868 16.3286V21.4739C17.8868 21.6341 17.9532 21.7877 18.0714 21.901C18.1896 22.0143 18.3498 22.0779 18.5169 22.0779C18.684 22.0779 18.8443 22.0143 18.9625 21.901C19.0806 21.7877 19.147 21.6341 19.147 21.4739V21.4715Z" fill="white"/>
</svg>
